G04*
G04 #@! TF.GenerationSoftware,Altium Limited,Altium Designer,24.5.2 (23)*
G04*
G04 Layer_Color=16711935*
%FSLAX25Y25*%
%MOIN*%
G70*
G04*
G04 #@! TF.SameCoordinates,ABFB3A1E-B083-4CA8-929D-C611416AE9B3*
G04*
G04*
G04 #@! TF.FilePolarity,Positive*
G04*
G01*
G75*
%ADD75C,0.00600*%
D75*
X47500Y51500D02*
G03*
X51500Y47500I4000J0D01*
G01*
X200000Y75000D02*
G03*
X175000Y75000I-12500J0D01*
G01*
X383500Y47500D02*
G03*
X387500Y51500I0J4000D01*
G01*
X47500D02*
Y177500D01*
X387500D01*
Y51500D02*
Y177500D01*
X200000Y47500D02*
Y75000D01*
Y47500D02*
X383500D01*
X51500D02*
X175000D01*
Y75000D01*
X427500Y51500D02*
G03*
X431500Y47500I4000J0D01*
G01*
X580000Y75000D02*
G03*
X555000Y75000I-12500J0D01*
G01*
X763500Y47500D02*
G03*
X767500Y51500I0J4000D01*
G01*
X427500D02*
Y177500D01*
X767500D01*
Y51500D02*
Y177500D01*
X580000Y47500D02*
Y75000D01*
Y47500D02*
X763500D01*
X431500D02*
X555000D01*
Y75000D01*
X47500Y191500D02*
G03*
X51500Y187500I4000J0D01*
G01*
X200000Y215000D02*
G03*
X175000Y215000I-12500J0D01*
G01*
X383500Y187500D02*
G03*
X387500Y191500I0J4000D01*
G01*
X47500D02*
Y317500D01*
X387500D01*
Y191500D02*
Y317500D01*
X200000Y187500D02*
Y215000D01*
Y187500D02*
X383500D01*
X51500D02*
X175000D01*
Y215000D01*
X427500Y191500D02*
G03*
X431500Y187500I4000J0D01*
G01*
X580000Y215000D02*
G03*
X555000Y215000I-12500J0D01*
G01*
X763500Y187500D02*
G03*
X767500Y191500I0J4000D01*
G01*
X427500D02*
Y317500D01*
X767500D01*
Y191500D02*
Y317500D01*
X580000Y187500D02*
Y215000D01*
Y187500D02*
X763500D01*
X431500D02*
X555000D01*
Y215000D01*
X47500Y331500D02*
G03*
X51500Y327500I4000J0D01*
G01*
X200000Y355000D02*
G03*
X175000Y355000I-12500J0D01*
G01*
X383500Y327500D02*
G03*
X387500Y331500I0J4000D01*
G01*
X47500D02*
Y457500D01*
X387500D01*
Y331500D02*
Y457500D01*
X200000Y327500D02*
Y355000D01*
Y327500D02*
X383500D01*
X51500D02*
X175000D01*
Y355000D01*
X427500Y331500D02*
G03*
X431500Y327500I4000J0D01*
G01*
X580000Y355000D02*
G03*
X555000Y355000I-12500J0D01*
G01*
X763500Y327500D02*
G03*
X767500Y331500I0J4000D01*
G01*
X427500D02*
Y457500D01*
X767500D01*
Y331500D02*
Y457500D01*
X580000Y327500D02*
Y355000D01*
Y327500D02*
X763500D01*
X431500D02*
X555000D01*
Y355000D01*
X47500Y471500D02*
G03*
X51500Y467500I4000J0D01*
G01*
X200000Y495000D02*
G03*
X175000Y495000I-12500J0D01*
G01*
X383500Y467500D02*
G03*
X387500Y471500I0J4000D01*
G01*
X47500D02*
Y597500D01*
X387500D01*
Y471500D02*
Y597500D01*
X200000Y467500D02*
Y495000D01*
Y467500D02*
X383500D01*
X51500D02*
X175000D01*
Y495000D01*
X427500Y471500D02*
G03*
X431500Y467500I4000J0D01*
G01*
X580000Y495000D02*
G03*
X555000Y495000I-12500J0D01*
G01*
X763500Y467500D02*
G03*
X767500Y471500I0J4000D01*
G01*
X427500D02*
Y597500D01*
X767500D01*
Y471500D02*
Y597500D01*
X580000Y467500D02*
Y495000D01*
Y467500D02*
X763500D01*
X431500D02*
X555000D01*
Y495000D01*
X47500Y611500D02*
G03*
X51500Y607500I4000J0D01*
G01*
X200000Y635000D02*
G03*
X175000Y635000I-12500J0D01*
G01*
X383500Y607500D02*
G03*
X387500Y611500I0J4000D01*
G01*
X47500D02*
Y737500D01*
X387500D01*
Y611500D02*
Y737500D01*
X200000Y607500D02*
Y635000D01*
Y607500D02*
X383500D01*
X51500D02*
X175000D01*
Y635000D01*
X427500Y611500D02*
G03*
X431500Y607500I4000J0D01*
G01*
X580000Y635000D02*
G03*
X555000Y635000I-12500J0D01*
G01*
X763500Y607500D02*
G03*
X767500Y611500I0J4000D01*
G01*
X427500D02*
Y737500D01*
X767500D01*
Y611500D02*
Y737500D01*
X580000Y607500D02*
Y635000D01*
Y607500D02*
X763500D01*
X431500D02*
X555000D01*
Y635000D01*
M02*
